<svg width="1016" height="1111" viewBox="0 0 1016 1111" fill="none" xmlns="http://www.w3.org/2000/svg">
    <path opacity="0.5" d="M318.343 36.6942C198.405 137.217 179.819 327.298 98.5892 467.527C70.3124 516.322 33.7749 559.992 14.7119 614.123C-29.0536 738.026 31.1802 878.572 111.801 976.981C150.245 1023.93 195.149 1066.94 249.478 1086.72C291.258 1101.94 336.056 1102.57 380.033 1102.97L1150.5 1110.9C1236.52 1111.77 1332.1 1108.62 1393.95 1042.21C1436.57 996.478 1453.89 929.692 1468.58 865.944C1486.64 787.613 1503 702.546 1474.91 627.94C1442.82 542.582 1361.67 494.21 1311.26 420.555C1229.45 301.223 1231.33 120.731 1127.14 25.4664C1078.51 -18.9959 1014.33 -36.4321 951.792 -45.1502C833.892 -61.6089 722.215 -30.5408 606.433 -34.8734C507.464 -38.572 400.447 -32.1259 318.343 36.6942Z" fill="#E7ECFF"/>
    <path opacity="0.24" d="M559.786 932.613C513.337 937.283 465.463 942.419 424.589 965.264C419.119 968.328 413.564 971.942 410.546 977.458C404.488 988.553 411.363 1003.18 422.032 1009.86C432.701 1016.53 445.865 1017.29 458.42 1017.84C681.987 1027.59 905.889 1023.76 1129.65 1019.96C1194.62 1018.86 1260.63 1017.59 1322.9 998.718C1334.1 995.337 1346.4 990.265 1350.61 979.212C1356.13 964.757 1343.55 948.737 1328.88 944.236C1314.2 939.735 1298.55 943.095 1283.37 945.06C1230.68 951.886 1177.52 941.446 1125.05 933.099C1022.35 916.784 915.783 903.512 811.755 901.039C776.289 900.215 746.001 912.515 711.29 917.376C661.173 924.434 610.176 927.541 559.786 932.613Z" fill="#505F98"/>
    <path d="M377.077 499.326L492.907 263.408L561.893 297.19L446.063 533.108L377.077 499.326Z" fill="white"/>
    <path d="M403.922 492.055L418.036 463.22L464.5 485.903L450.386 514.738L403.922 492.055Z" fill="#505F98"/>
    <path d="M403.922 492.055L418.036 463.22L464.5 485.903L450.386 514.738L403.922 492.055Z" fill="url(#paint0_linear_108_1327)"/>
    <path d="M418.038 463.445L432.151 434.61L478.615 457.293L464.502 486.128L418.038 463.445Z" fill="#505F98"/>
    <path d="M418.038 463.445L432.151 434.61L478.615 457.293L464.502 486.128L418.038 463.445Z" fill="url(#paint1_linear_108_1327)"/>
    <path d="M432.134 434.826L446.248 405.991L492.712 428.674L478.599 457.509L432.134 434.826Z" fill="#505F98"/>
    <path d="M432.134 434.826L446.248 405.991L492.712 428.674L478.599 457.509L432.134 434.826Z" fill="url(#paint2_linear_108_1327)"/>
    <path d="M446.271 406.237L460.384 377.402L506.848 400.085L492.735 428.92L446.271 406.237Z" fill="#505F98"/>
    <path d="M446.271 406.237L460.384 377.402L506.848 400.085L492.735 428.92L446.271 406.237Z" fill="url(#paint3_linear_108_1327)"/>
    <path d="M460.377 377.599L474.49 348.764L520.954 371.447L506.841 400.282L460.377 377.599Z" fill="#505F98"/>
    <path d="M474.492 349.01L488.606 320.175L535.07 342.858L520.956 371.693L474.492 349.01Z" fill="#505F98"/>
    <path d="M488.589 320.391L502.702 291.556L549.166 314.239L535.053 343.074L488.589 320.391Z" fill="#505F98"/>
    <path d="M472.904 352.598L487.018 323.763L533.482 346.446L519.368 375.281L472.904 352.598Z" fill="url(#paint4_linear_108_1327)"/>
    <path d="M487.029 323.97L501.142 295.135L547.607 317.817L533.493 346.652L487.029 323.97Z" fill="url(#paint5_linear_108_1327)"/>
    <rect x="787.545" y="817" width="98.0679" height="82" fill="#505F98"/>
    <rect x="787.545" y="817" width="98.0679" height="82" fill="url(#paint6_linear_108_1327)"/>
    <rect x="579.401" y="475" width="518.359" height="355" rx="9.37" fill="#505F98"/>
    <path opacity="0.65" d="M1080.75 504.438V798.562C1080.77 803.443 1078.84 808.129 1075.4 811.588C1071.96 815.047 1067.29 816.994 1062.41 817H610.748C605.873 816.989 601.203 815.04 597.764 811.582C594.325 808.125 592.399 803.441 592.41 798.562V504.438C592.399 499.559 594.325 494.875 597.764 491.418C601.203 487.96 605.873 486.011 610.748 486H1062.41C1067.29 486.006 1071.96 487.953 1075.4 491.412C1078.84 494.871 1080.77 499.557 1080.75 504.438Z" fill="url(#paint7_linear_108_1327)"/>
    <rect x="742.514" y="889" width="206.143" height="21" fill="#505F98"/>
    <rect x="787.545" y="877" width="98.0679" height="12" fill="url(#paint8_linear_108_1327)"/>
    <path fill-rule="evenodd" clip-rule="evenodd" d="M942.653 303.241V323.715L929.944 323.819C928.707 333.346 925.084 342.41 919.405 350.181L930.26 361.351L915.38 375.6L904.694 364.578C898.105 369.062 890.67 372.17 882.838 373.714V387H862.267V374.029C853.483 372.76 845.11 369.497 837.797 364.494L828.861 373.316L814.297 358.647L823.17 349.993C817.584 342.219 814.021 333.191 812.801 323.715H798.553V303.241H813.307C815.136 295.093 818.732 287.441 823.845 280.819L815.604 272.332L830.484 258.082L838.914 266.82C845.885 262.214 853.809 259.228 862.099 258.082V244H882.669V258.396C891.038 260.055 898.947 263.493 905.853 268.476L916.391 258.166L930.871 272.709L920.333 283.187C924.464 289.267 927.397 296.073 928.974 303.241H942.653ZM836.512 316.15C836.488 335.211 852.011 350.682 871.182 350.705C880.394 350.733 889.238 347.113 895.759 340.644C902.281 334.176 905.943 325.392 905.938 316.233C905.961 297.172 890.438 281.701 871.267 281.678C852.095 281.655 836.535 297.088 836.512 316.15Z" fill="#505F98"/>
    <path fill-rule="evenodd" clip-rule="evenodd" d="M1018.71 337.354L1017.79 349.396L1010.27 348.938C1009.15 354.475 1006.64 359.641 1002.99 363.958L1008.86 371.021L999.507 378.729L993.747 371.792C989.693 374.13 985.206 375.625 980.558 376.188L979.953 384L967.912 383.104L968.496 375.479C963.411 374.344 958.656 372.056 954.598 368.792L948.964 373.583L941.096 364.396L946.668 359.688C943.74 354.876 942.055 349.414 941.764 343.792L933.646 343.167L934.544 331.146L943.162 331.792C944.586 327.085 947.014 322.743 950.278 319.062L945.834 313.708L955.182 306L959.711 311.5C963.982 309.095 968.738 307.672 973.63 307.333L974.256 299L986.297 299.896L985.65 308.375C990.457 309.714 994.915 312.081 998.714 315.312L1005.33 309.708L1013.18 318.896L1006.5 324.583C1008.66 328.339 1010.08 332.477 1010.67 336.771L1018.71 337.354ZM956.008 340.243C955.153 351.436 963.546 361.203 974.757 362.062C980.151 362.487 985.492 360.747 989.597 357.228C993.703 353.708 996.232 348.7 996.627 343.312C997.469 332.119 989.066 322.361 977.854 321.514C966.642 320.666 956.863 329.05 956.008 340.243Z" fill="#505F98"/>
    <path d="M1080.75 504.513V511H592.41V504.513C592.399 499.614 594.325 494.912 597.764 491.44C601.203 487.968 605.874 486.011 610.749 486H1062.41C1067.29 486.006 1071.96 487.961 1075.4 491.434C1078.84 494.907 1080.77 499.613 1080.75 504.513Z" fill="url(#paint9_linear_108_1327)"/>
    <rect x="602.417" y="543" width="47.0326" height="227" fill="url(#paint10_linear_108_1327)"/>
    <rect x="720.499" y="559" width="221.153" height="209" fill="url(#paint11_linear_108_1327)"/>
    <rect x="771.534" y="657" width="7.00485" height="9" fill="url(#paint12_linear_108_1327)"/>
    <rect x="771.534" y="615" width="7.00485" height="9" fill="url(#paint13_linear_108_1327)"/>
    <rect x="676.469" y="657" width="7.00485" height="9" fill="url(#paint14_linear_108_1327)"/>
    <rect x="676.469" y="615" width="7.00485" height="9" fill="url(#paint15_linear_108_1327)"/>
    <rect x="771.534" y="570" width="7.00485" height="9" fill="url(#paint16_linear_108_1327)"/>
    <rect x="677.469" y="570" width="7.00485" height="9" fill="url(#paint17_linear_108_1327)"/>
    <rect x="725.502" y="570" width="7.00485" height="9" fill="url(#paint18_linear_108_1327)"/>
    <rect x="725.502" y="657" width="7.00485" height="9" fill="url(#paint19_linear_108_1327)"/>
    <path fill-rule="evenodd" clip-rule="evenodd" d="M689.478 655H767.532V582H689.478V655ZM759.67 647.282H697.34V589.656H759.67V647.282Z" fill="#505F98"/>
    <path fill-rule="evenodd" clip-rule="evenodd" d="M689.478 655H767.532V582H689.478V655ZM759.67 647.282H697.34V589.656H759.67V647.282Z" fill="url(#paint20_linear_108_1327)"/>
    <rect x="973.674" y="523" width="100.069" height="100" fill="url(#paint21_linear_108_1327)"/>
    <rect x="973.674" y="633" width="100.069" height="100" fill="url(#paint22_linear_108_1327)"/>
    <rect opacity="0.65" x="602.417" y="542" width="47.0326" height="13" fill="url(#paint23_linear_108_1327)"/>
    <path d="M399.381 473.827L604.51 309.293L652.622 369.118L447.494 533.652L399.381 473.827Z" fill="white"/>
    <path d="M428.105 478.455L453.172 458.235L485.755 498.522L460.687 518.742L428.105 478.455Z" fill="#505F98"/>
    <path d="M428.105 478.455L453.172 458.235L485.755 498.522L460.687 518.742L428.105 478.455Z" fill="url(#paint24_linear_108_1327)"/>
    <path d="M451.723 458.689L476.755 438.56L509.19 478.79L484.158 498.919L451.723 458.689Z" fill="#505F98"/>
    <path d="M451.723 458.689L476.755 438.56L509.19 478.79L484.158 498.919L451.723 458.689Z" fill="url(#paint25_linear_108_1327)"/>
    <path d="M476.667 438.761L501.699 418.633L534.134 458.863L509.101 478.991L476.667 438.761Z" fill="#505F98"/>
    <path d="M476.667 438.761L501.699 418.633L534.134 458.863L509.101 478.991L476.667 438.761Z" fill="url(#paint26_linear_108_1327)"/>
    <path d="M501.594 418.847L526.626 398.718L559.061 438.948L534.029 459.077L501.594 418.847Z" fill="#505F98"/>
    <path d="M501.594 418.847L526.626 398.718L559.061 438.948L534.029 459.077L501.594 418.847Z" fill="url(#paint27_linear_108_1327)"/>
    <path d="M527.714 398.389L552.782 378.169L585.364 418.456L560.297 438.676L527.714 398.389Z" fill="#505F98"/>
    <path d="M552.794 377.99L577.862 357.77L610.444 398.057L585.377 418.277L552.794 377.99Z" fill="#505F98"/>
    <path d="M576.402 359.051L601.434 338.923L633.869 379.153L608.837 399.281L576.402 359.051Z" fill="#505F98"/>
    <path d="M606.42 402.218L585.321 419L553.383 378.782L574.482 362L606.42 402.218Z" fill="url(#paint28_linear_108_1327)"/>
    <path d="M573.445 361.648L598.477 341.519L630.912 381.749L605.879 401.878L573.445 361.648Z" fill="url(#paint29_linear_108_1327)"/>
    <path d="M522.362 483.15V606H501.347V483.15C501.347 478.61 504.166 474.57 508.366 473.089V460.825C508.366 458.712 510.041 457 512.109 457C514.176 457 515.852 458.712 515.852 460.825V473.297C519.771 474.935 522.34 478.823 522.362 483.15Z" fill="#505F98"/>
    <path d="M522.362 483.15V606H501.347V483.15C501.347 478.61 504.166 474.57 508.366 473.089V460.825C508.366 458.712 510.041 457 512.109 457C514.176 457 515.852 458.712 515.852 460.825V473.297C519.771 474.935 522.34 478.823 522.362 483.15Z" fill="url(#paint30_linear_108_1327)"/>
    <rect x="488.338" y="561" width="50.0346" height="9" rx="2.245" fill="#505F98"/>
    <path d="M513.044 643C504.471 643 497.344 630.185 497.344 621.634V565H528.366V621.634C528.366 630.185 521.596 643 513.044 643Z" fill="#505F98"/>
    <rect x="488.338" y="561" width="50.0346" height="9" rx="2.245" fill="url(#paint31_linear_108_1327)"/>
    <path d="M513.044 643C504.471 643 497.344 630.366 497.344 621.937V570H528.366V621.937C528.366 630.366 521.596 643 513.044 643Z" fill="url(#paint32_linear_108_1327)"/>
    <path d="M713.136 703C712.463 699.436 712.037 694.39 713.331 694.043C716.059 693.275 713.136 703 713.136 703Z" fill="#28353D"/>
    <path d="M856.395 898.507C855.909 911.102 846.147 957.388 845.83 970.004C845.83 974.202 846.95 980.647 845.597 984.698C842.808 993.284 832.919 992.108 831.63 987.049L831.144 984.53C826.559 960.012 833.933 932.198 831.144 900.186C829.475 880.643 821.699 842.963 816.606 842.711C813.923 842.711 752.665 971.851 747.34 979.807C744.72 983.817 737.345 983.187 733.774 986.42C730.203 989.652 763.526 888.515 777.493 835.07C780.751 824.039 782.875 812.709 783.833 801.252C784.213 794.64 782.079 792.415 788.185 790.463C792.412 789.119 798.265 789.497 802.787 789.182C807.71 788.804 853.5 788.72 853.5 791.953C853.057 809.502 857.578 869.412 856.395 898.507Z" fill="#606161"/>
    <path d="M856.395 898.507C855.909 911.102 846.147 957.388 845.83 970.004C845.83 974.202 846.95 980.647 845.597 984.698C842.808 993.284 832.919 992.108 831.63 987.049L831.144 984.53C826.559 960.012 833.933 932.198 831.144 900.186C829.475 880.643 821.699 842.963 816.606 842.711C813.923 842.711 752.665 971.851 747.34 979.807C744.72 983.817 737.345 983.187 733.774 986.42C730.203 989.652 763.526 888.515 777.493 835.07C780.751 824.039 782.875 812.709 783.833 801.252C784.213 794.64 782.079 792.415 788.185 790.463C792.412 789.119 798.265 789.497 802.787 789.182C807.71 788.804 853.5 788.72 853.5 791.953C853.057 809.502 857.578 869.412 856.395 898.507Z" fill="url(#paint33_linear_108_1327)"/>
    <path d="M802.322 630.148C801.937 626.163 800.054 624 798.215 624C796.375 624 795.241 626.12 795.626 630.148C795.713 633.122 797.957 635.597 800.932 636C802.793 636 802.729 634.134 802.322 630.148Z" fill="#FFCD9C"/>
    <path d="M834.716 630.159C834.966 626.166 836.803 624 838.702 624C840.601 624 841.832 626.124 841.54 630.159C841.514 633.173 839.268 635.687 836.323 636C834.445 636 834.424 634.152 834.716 630.159Z" fill="#FFCD9C"/>
    <path d="M838.44 647.672C838.181 649.777 829.266 659 819.121 659C808.976 659 800.6 650.577 798.83 647.208C797.06 643.839 804.184 600.505 808.306 596.884C812.429 593.262 829.137 595.641 830.54 597.558C833.907 602.085 839.541 639.27 838.44 647.672Z" fill="#F4AD7D"/>
    <path d="M834.246 614.977C832.867 615.639 827.452 601.842 826.316 599.525C825.18 597.208 825.362 594.829 826.742 594.167C828.121 593.505 830.149 594.871 831.285 597.167C832.421 599.463 835.605 614.336 834.246 614.977Z" fill="#FFCD9C"/>
    <path d="M803.876 613.987C802.446 613.501 806.233 599.179 807.059 596.703C807.885 594.228 809.739 592.599 811.089 593.086C812.439 593.573 813.003 595.984 812.177 598.481C811.351 600.977 805.226 614.474 803.876 613.987Z" fill="#FFCD9C"/>
    <path d="M809.553 646H831.317L834.578 666.622C822.722 673.005 815.81 672.301 806.559 665.214L809.553 646Z" fill="#F4AD7D"/>
    <path d="M818.567 650.13C818.567 649.75 819.472 649.43 820.568 649.43C821.664 649.43 822.57 649.75 822.57 650.13C822.57 650.51 821.688 650.57 820.568 650.57C819.448 650.57 818.567 650.53 818.567 650.13Z" fill="#F4AD7D"/>
    <path d="M839.6 640.808C840.424 635.894 841.768 600.708 838.473 596.051C835.177 591.394 815.449 588.381 812.457 589.108C805.758 590.731 806.929 595.517 806.929 595.517C804.938 595.547 802.989 596.084 801.271 597.076C798.973 598.615 794.138 620.79 797.997 637.56C799.732 645.102 806.561 651.66 818.354 651.981C832.879 652.365 838.603 646.896 839.6 640.808Z" fill="#606161"/>
    <path d="M812.539 590.762C814.098 589.448 816.118 588.828 818.138 589.041C824.271 589.008 830.355 590.14 836.073 592.376C839.243 593.488 842.122 595.311 844.493 597.708C846.88 600.173 847.979 603.627 847.461 607.034C846.408 612.047 841.146 615.148 839.42 619.97C838.031 623.837 839.02 627.575 839.062 631.463C839.09 634.606 838.865 637.746 838.388 640.852C837.42 646.906 831.884 652.344 817.675 651.983C806.224 651.664 799.593 645.143 797.909 637.644C795.629 625.198 796.227 612.389 799.656 600.215C805.828 601.648 812.142 602.361 818.475 602.339C825.19 602.395 831.886 601.611 838.409 600.002C839.525 606.503 839.504 619.524 839.146 629.253" fill="#606161"/>
    <path d="M777.41 662.954C773.976 663.241 770.668 664.384 767.785 666.28C762.847 670.171 762.472 677.43 762.556 683.748C762.387 692.501 762.993 701.252 764.368 709.897C765.848 717.826 768.535 725.441 770.743 733.202C774.224 745.831 776.052 758.862 776.181 771.966C776.181 779.162 776.056 787.07 780.535 792.697C785.431 798.806 794.098 799.998 801.89 800.438C812.953 801.086 824.057 801.17 835.12 800.709C842.537 800.375 850.433 799.643 856.308 795.082C860.996 791.442 871.975 668.288 863.454 665.171C854.933 662.054 845.766 661.259 836.724 660.506C816.453 658.791 797.369 657.431 777.41 662.954Z" fill="#505F98"/>
    <path d="M841.23 918.291C840.143 932.255 837.551 983 837.551 983L830.946 982.77C826.41 958.39 833.705 930.732 830.946 898.899C829.295 879.465 821.603 841.996 816.565 841.746C818.07 829.221 826.536 831.1 826.536 831.1C832.692 840.294 838.002 850.026 842.4 860.178C847.438 873.37 842.337 904.263 841.23 918.291Z" fill="url(#paint34_linear_108_1327)"/>
    <path d="M716.873 984.024C715.841 984.786 715.058 985.83 714.621 987.025C714.386 988.009 714.481 989.04 714.892 989.965C716.058 992.326 718.269 994.019 720.876 994.55C723.453 995.04 726.091 995.131 728.696 994.818L737.036 994.262C739.158 994.212 741.264 993.873 743.292 993.255C745.322 992.627 746.998 991.198 747.921 989.308C748.412 987.916 748.604 986.438 748.484 984.969C748.484 978.164 746.065 972.634 738.517 974.299C730.61 975.765 723.183 979.102 716.873 984.024Z" fill="#505F98"/>
    <path d="M855.411 987.063C856.359 987.759 857.077 988.709 857.478 989.797C857.692 990.682 857.608 991.611 857.239 992.446C856.176 994.584 854.146 996.114 851.755 996.579C849.398 997.035 846.981 997.121 844.596 996.834L837.024 996.325C835.098 996.284 833.187 995.985 831.345 995.435C829.488 994.864 827.958 993.566 827.123 991.853C826.675 990.595 826.498 989.26 826.601 987.932C826.601 981.785 828.777 976.72 835.718 978.288C842.915 979.619 849.672 982.63 855.411 987.063Z" fill="#505F98"/>
    <path d="M864.599 665C864.599 665 897.314 684.163 907.14 708.389C916.965 732.614 874.961 791 874.961 791L865.972 781.814C865.972 781.814 887.897 737.759 884.507 726.74C881.117 715.721 867.838 705.452 867.838 705.452L864.599 665Z" fill="#505F98"/>
    <path d="M771.534 702.859C771.534 702.859 726.046 723.24 707.561 713.238C689.076 703.237 708.106 653 708.106 653L720.486 657.202C720.486 657.202 710.142 682.815 721.975 686.618C733.809 690.421 769.268 665.438 769.268 665.438L771.534 702.859Z" fill="#505F98"/>
    <path d="M857.175 789.976C855.866 790.826 854.806 791.968 854.09 793.297C853.66 794.425 853.505 795.629 853.637 796.819C853.557 799.709 854.872 802.479 857.218 804.367C858.866 805.25 860.713 805.76 862.611 805.857C863.774 806.048 864.964 806.048 866.128 805.857C867.314 805.646 868.305 804.888 868.759 803.844C868.914 803.183 868.98 802.507 868.954 801.831C869.105 798.51 871.607 795.793 873.678 793.076C874.178 792.551 874.501 791.9 874.606 791.204C874.594 790.434 874.305 789.69 873.786 789.091C872.384 787.199 868.91 783.717 866.128 784.018C863.345 784.32 859.332 788.326 857.175 789.976Z" fill="#F4AD7D"/>
    <path d="M728.294 645.435C728.886 644.611 729.29 643.679 729.48 642.698C729.631 641.683 729.094 640.687 728.14 640.211C726.624 639.647 724.822 641.13 723.328 640.504C722.822 640.235 722.399 639.846 722.098 639.375C720.333 636.945 719.321 634.093 719.175 631.143C719.261 629.571 719.113 627.995 718.736 626.463C718.292 624.886 716.708 623.849 715.001 624.018C713.595 624.331 712.804 625.689 711.925 626.776C711.046 627.863 709.288 629.158 708.146 630.516C706.195 633.307 705.079 636.55 704.916 639.898C704.301 644.077 703.905 648.861 706.981 651.87C709.354 654.189 716.583 656.927 719.9 655.694C723.57 654.315 726.448 648.444 728.294 645.435Z" fill="#F4AD7D"/>
    <defs>
        <linearGradient id="paint0_linear_108_1327" x1="528.11" y1="559.166" x2="592.864" y2="430.6" gradientUnits="userSpaceOnUse">
            <stop stop-color="#010101" stop-opacity="0.01"/>
            <stop offset="0.95" stop-color="#010101"/>
        </linearGradient>
        <linearGradient id="paint1_linear_108_1327" x1="583.271" y1="555.365" x2="676.125" y2="373.775" gradientUnits="userSpaceOnUse">
            <stop stop-color="#010101" stop-opacity="0.01"/>
            <stop offset="0.95" stop-color="#010101"/>
        </linearGradient>
        <linearGradient id="paint2_linear_108_1327" x1="703.253" y1="564.092" x2="840.607" y2="253.948" gradientUnits="userSpaceOnUse">
            <stop stop-color="#010101" stop-opacity="0.01"/>
            <stop offset="0.95" stop-color="#010101"/>
        </linearGradient>
        <linearGradient id="paint3_linear_108_1327" x1="831.087" y1="580.583" x2="1036.02" y2="133.179" gradientUnits="userSpaceOnUse">
            <stop stop-color="#010101" stop-opacity="0.01"/>
            <stop offset="0.36" stop-color="#010101" stop-opacity="0.36"/>
            <stop offset="0.95" stop-color="#010101"/>
        </linearGradient>
        <linearGradient id="paint4_linear_108_1327" x1="682.434" y1="475.564" x2="799.594" y2="233.969" gradientUnits="userSpaceOnUse">
            <stop stop-color="white" stop-opacity="0.01"/>
            <stop offset="0.07" stop-color="white" stop-opacity="0.22"/>
            <stop offset="0.16" stop-color="white" stop-opacity="0.45"/>
            <stop offset="0.25" stop-color="white" stop-opacity="0.65"/>
            <stop offset="0.33" stop-color="white" stop-opacity="0.8"/>
            <stop offset="0.4" stop-color="white" stop-opacity="0.91"/>
            <stop offset="0.46" stop-color="white" stop-opacity="0.98"/>
            <stop offset="0.51" stop-color="white"/>
        </linearGradient>
        <linearGradient id="paint5_linear_108_1327" x1="604.358" y1="422.444" x2="668.555" y2="286.555" gradientUnits="userSpaceOnUse">
            <stop stop-color="white" stop-opacity="0.01"/>
            <stop offset="0.07" stop-color="white" stop-opacity="0.22"/>
            <stop offset="0.16" stop-color="white" stop-opacity="0.45"/>
            <stop offset="0.25" stop-color="white" stop-opacity="0.65"/>
            <stop offset="0.33" stop-color="white" stop-opacity="0.8"/>
            <stop offset="0.4" stop-color="white" stop-opacity="0.91"/>
            <stop offset="0.46" stop-color="white" stop-opacity="0.98"/>
            <stop offset="0.51" stop-color="white"/>
        </linearGradient>
        <linearGradient id="paint6_linear_108_1327" x1="909.68" y1="885.322" x2="920.101" y2="758.584" gradientUnits="userSpaceOnUse">
            <stop stop-color="#010101" stop-opacity="0.01"/>
            <stop offset="0.95" stop-color="#010101"/>
        </linearGradient>
        <linearGradient id="paint7_linear_108_1327" x1="507.967" y1="422.517" x2="505.252" y2="872.071" gradientUnits="userSpaceOnUse">
            <stop stop-color="white" stop-opacity="0.01"/>
            <stop offset="0.07" stop-color="white" stop-opacity="0.22"/>
            <stop offset="0.16" stop-color="white" stop-opacity="0.45"/>
            <stop offset="0.25" stop-color="white" stop-opacity="0.65"/>
            <stop offset="0.33" stop-color="white" stop-opacity="0.8"/>
            <stop offset="0.4" stop-color="white" stop-opacity="0.91"/>
            <stop offset="0.46" stop-color="white" stop-opacity="0.98"/>
            <stop offset="0.51" stop-color="white"/>
        </linearGradient>
        <linearGradient id="paint8_linear_108_1327" x1="254.313" y1="860.073" x2="254.413" y2="1002.31" gradientUnits="userSpaceOnUse">
            <stop stop-color="#010101" stop-opacity="0.01"/>
            <stop offset="0.95" stop-color="#010101"/>
        </linearGradient>
        <linearGradient id="paint9_linear_108_1327" x1="1406.73" y1="605.966" x2="1440.91" y2="198.855" gradientUnits="userSpaceOnUse">
            <stop stop-color="white" stop-opacity="0.01"/>
            <stop offset="0.07" stop-color="white" stop-opacity="0.22"/>
            <stop offset="0.16" stop-color="white" stop-opacity="0.45"/>
            <stop offset="0.25" stop-color="white" stop-opacity="0.65"/>
            <stop offset="0.33" stop-color="white" stop-opacity="0.8"/>
            <stop offset="0.4" stop-color="white" stop-opacity="0.91"/>
            <stop offset="0.46" stop-color="white" stop-opacity="0.98"/>
            <stop offset="0.51" stop-color="white"/>
        </linearGradient>
        <linearGradient id="paint10_linear_108_1327" x1="579.846" y1="495.87" x2="717.853" y2="864.142" gradientUnits="userSpaceOnUse">
            <stop stop-color="white" stop-opacity="0.01"/>
            <stop offset="0.07" stop-color="white" stop-opacity="0.22"/>
            <stop offset="0.16" stop-color="white" stop-opacity="0.45"/>
            <stop offset="0.25" stop-color="white" stop-opacity="0.65"/>
            <stop offset="0.33" stop-color="white" stop-opacity="0.8"/>
            <stop offset="0.4" stop-color="white" stop-opacity="0.91"/>
            <stop offset="0.46" stop-color="white" stop-opacity="0.98"/>
            <stop offset="0.51" stop-color="white"/>
        </linearGradient>
        <linearGradient id="paint11_linear_108_1327" x1="683.377" y1="518.99" x2="680.051" y2="801.698" gradientUnits="userSpaceOnUse">
            <stop stop-color="white" stop-opacity="0.01"/>
            <stop offset="0.07" stop-color="white" stop-opacity="0.22"/>
            <stop offset="0.16" stop-color="white" stop-opacity="0.45"/>
            <stop offset="0.25" stop-color="white" stop-opacity="0.65"/>
            <stop offset="0.33" stop-color="white" stop-opacity="0.8"/>
            <stop offset="0.4" stop-color="white" stop-opacity="0.91"/>
            <stop offset="0.46" stop-color="white" stop-opacity="0.98"/>
            <stop offset="0.51" stop-color="white"/>
        </linearGradient>
        <linearGradient id="paint12_linear_108_1327" x1="999.211" y1="710.704" x2="1018.4" y2="132.785" gradientUnits="userSpaceOnUse">
            <stop stop-color="#010101" stop-opacity="0.01"/>
            <stop offset="0.95" stop-color="#010101"/>
        </linearGradient>
        <linearGradient id="paint13_linear_108_1327" x1="998.359" y1="711.045" x2="1017.55" y2="133.125" gradientUnits="userSpaceOnUse">
            <stop stop-color="#010101" stop-opacity="0.01"/>
            <stop offset="0.95" stop-color="#010101"/>
        </linearGradient>
        <linearGradient id="paint14_linear_108_1327" x1="904.18" y1="708.354" x2="923.396" y2="130.435" gradientUnits="userSpaceOnUse">
            <stop stop-color="#010101" stop-opacity="0.01"/>
            <stop offset="0.95" stop-color="#010101"/>
        </linearGradient>
        <linearGradient id="paint15_linear_108_1327" x1="903.328" y1="708.694" x2="922.544" y2="130.776" gradientUnits="userSpaceOnUse">
            <stop stop-color="#010101" stop-opacity="0.01"/>
            <stop offset="0.95" stop-color="#010101"/>
        </linearGradient>
        <linearGradient id="paint16_linear_108_1327" x1="997.421" y1="712.545" x2="1016.64" y2="134.627" gradientUnits="userSpaceOnUse">
            <stop stop-color="#010101" stop-opacity="0.01"/>
            <stop offset="0.95" stop-color="#010101"/>
        </linearGradient>
        <linearGradient id="paint17_linear_108_1327" x1="903.39" y1="710.236" x2="922.578" y2="132.317" gradientUnits="userSpaceOnUse">
            <stop stop-color="#010101" stop-opacity="0.01"/>
            <stop offset="0.95" stop-color="#010101"/>
        </linearGradient>
        <linearGradient id="paint18_linear_108_1327" x1="951.38" y1="711.396" x2="970.597" y2="133.499" gradientUnits="userSpaceOnUse">
            <stop stop-color="#010101" stop-opacity="0.01"/>
            <stop offset="0.95" stop-color="#010101"/>
        </linearGradient>
        <linearGradient id="paint19_linear_108_1327" x1="953.196" y1="708.843" x2="972.413" y2="130.925" gradientUnits="userSpaceOnUse">
            <stop stop-color="#010101" stop-opacity="0.01"/>
            <stop offset="0.95" stop-color="#010101"/>
        </linearGradient>
        <linearGradient id="paint20_linear_108_1327" x1="608.119" y1="723.399" x2="840.351" y2="940.094" gradientUnits="userSpaceOnUse">
            <stop stop-color="white" stop-opacity="0.01"/>
            <stop offset="0.07" stop-color="white" stop-opacity="0.22"/>
            <stop offset="0.16" stop-color="white" stop-opacity="0.45"/>
            <stop offset="0.25" stop-color="white" stop-opacity="0.65"/>
            <stop offset="0.33" stop-color="white" stop-opacity="0.8"/>
            <stop offset="0.4" stop-color="white" stop-opacity="0.91"/>
            <stop offset="0.46" stop-color="white" stop-opacity="0.98"/>
            <stop offset="0.51" stop-color="white"/>
        </linearGradient>
        <linearGradient id="paint21_linear_108_1327" x1="956.986" y1="503.864" x2="955.2" y2="639.026" gradientUnits="userSpaceOnUse">
            <stop stop-color="white" stop-opacity="0.01"/>
            <stop offset="0.07" stop-color="white" stop-opacity="0.22"/>
            <stop offset="0.16" stop-color="white" stop-opacity="0.45"/>
            <stop offset="0.25" stop-color="white" stop-opacity="0.65"/>
            <stop offset="0.33" stop-color="white" stop-opacity="0.8"/>
            <stop offset="0.4" stop-color="white" stop-opacity="0.91"/>
            <stop offset="0.46" stop-color="white" stop-opacity="0.98"/>
            <stop offset="0.51" stop-color="white"/>
        </linearGradient>
        <linearGradient id="paint22_linear_108_1327" x1="956.986" y1="613.864" x2="955.2" y2="749.026" gradientUnits="userSpaceOnUse">
            <stop stop-color="white" stop-opacity="0.01"/>
            <stop offset="0.07" stop-color="white" stop-opacity="0.22"/>
            <stop offset="0.16" stop-color="white" stop-opacity="0.45"/>
            <stop offset="0.25" stop-color="white" stop-opacity="0.65"/>
            <stop offset="0.33" stop-color="white" stop-opacity="0.8"/>
            <stop offset="0.4" stop-color="white" stop-opacity="0.91"/>
            <stop offset="0.46" stop-color="white" stop-opacity="0.98"/>
            <stop offset="0.51" stop-color="white"/>
        </linearGradient>
        <linearGradient id="paint23_linear_108_1327" x1="593.145" y1="539.281" x2="593.128" y2="557.481" gradientUnits="userSpaceOnUse">
            <stop stop-color="white" stop-opacity="0.01"/>
            <stop offset="0.07" stop-color="white" stop-opacity="0.22"/>
            <stop offset="0.16" stop-color="white" stop-opacity="0.45"/>
            <stop offset="0.25" stop-color="white" stop-opacity="0.65"/>
            <stop offset="0.33" stop-color="white" stop-opacity="0.8"/>
            <stop offset="0.4" stop-color="white" stop-opacity="0.91"/>
            <stop offset="0.46" stop-color="white" stop-opacity="0.98"/>
            <stop offset="0.51" stop-color="white"/>
        </linearGradient>
        <linearGradient id="paint24_linear_108_1327" x1="512.445" y1="592.052" x2="625.876" y2="502.635" gradientUnits="userSpaceOnUse">
            <stop stop-color="#010101" stop-opacity="0.01"/>
            <stop offset="0.95" stop-color="#010101"/>
        </linearGradient>
        <linearGradient id="paint25_linear_108_1327" x1="562.284" y1="611.988" x2="723.56" y2="486.867" gradientUnits="userSpaceOnUse">
            <stop stop-color="#010101" stop-opacity="0.01"/>
            <stop offset="0.95" stop-color="#010101"/>
        </linearGradient>
        <linearGradient id="paint26_linear_108_1327" x1="667.228" y1="670.751" x2="923.392" y2="448.028" gradientUnits="userSpaceOnUse">
            <stop stop-color="#010101" stop-opacity="0.01"/>
            <stop offset="0.95" stop-color="#010101"/>
        </linearGradient>
        <linearGradient id="paint27_linear_108_1327" x1="775.987" y1="739.865" x2="1151.67" y2="421.45" gradientUnits="userSpaceOnUse">
            <stop stop-color="#010101" stop-opacity="0.01"/>
            <stop offset="0.36" stop-color="#010101" stop-opacity="0.36"/>
            <stop offset="0.95" stop-color="#010101"/>
        </linearGradient>
        <linearGradient id="paint28_linear_108_1327" x1="624.246" y1="502.751" x2="807.185" y2="371.322" gradientUnits="userSpaceOnUse">
            <stop stop-color="white" stop-opacity="0.01"/>
            <stop offset="0.07" stop-color="white" stop-opacity="0.22"/>
            <stop offset="0.16" stop-color="white" stop-opacity="0.45"/>
            <stop offset="0.25" stop-color="white" stop-opacity="0.65"/>
            <stop offset="0.33" stop-color="white" stop-opacity="0.8"/>
            <stop offset="0.4" stop-color="white" stop-opacity="0.91"/>
            <stop offset="0.46" stop-color="white" stop-opacity="0.98"/>
            <stop offset="0.51" stop-color="white"/>
        </linearGradient>
        <linearGradient id="paint29_linear_108_1327" x1="637.859" y1="500.517" x2="753.717" y2="404.658" gradientUnits="userSpaceOnUse">
            <stop stop-color="white" stop-opacity="0.01"/>
            <stop offset="0.07" stop-color="white" stop-opacity="0.22"/>
            <stop offset="0.16" stop-color="white" stop-opacity="0.45"/>
            <stop offset="0.25" stop-color="white" stop-opacity="0.65"/>
            <stop offset="0.33" stop-color="white" stop-opacity="0.8"/>
            <stop offset="0.4" stop-color="white" stop-opacity="0.91"/>
            <stop offset="0.46" stop-color="white" stop-opacity="0.98"/>
            <stop offset="0.51" stop-color="white"/>
        </linearGradient>
        <linearGradient id="paint30_linear_108_1327" x1="503.446" y1="666.745" x2="541.631" y2="666.767" gradientUnits="userSpaceOnUse">
            <stop stop-color="white" stop-opacity="0.01"/>
            <stop offset="0.07" stop-color="white" stop-opacity="0.22"/>
            <stop offset="0.16" stop-color="white" stop-opacity="0.45"/>
            <stop offset="0.25" stop-color="white" stop-opacity="0.65"/>
            <stop offset="0.33" stop-color="white" stop-opacity="0.8"/>
            <stop offset="0.4" stop-color="white" stop-opacity="0.91"/>
            <stop offset="0.46" stop-color="white" stop-opacity="0.98"/>
            <stop offset="0.51" stop-color="white"/>
        </linearGradient>
        <linearGradient id="paint31_linear_108_1327" x1="430.154" y1="569.2" x2="441.805" y2="607.932" gradientUnits="userSpaceOnUse">
            <stop stop-color="#010101" stop-opacity="0.01"/>
            <stop offset="0.95" stop-color="#010101"/>
        </linearGradient>
        <linearGradient id="paint32_linear_108_1327" x1="454.952" y1="717.933" x2="555.855" y2="719.976" gradientUnits="userSpaceOnUse">
            <stop stop-color="#010101" stop-opacity="0.01"/>
            <stop offset="0.95" stop-color="#010101"/>
        </linearGradient>
        <linearGradient id="paint33_linear_108_1327" x1="857.723" y1="875.512" x2="761.63" y2="710.732" gradientUnits="userSpaceOnUse">
            <stop stop-color="#010101" stop-opacity="0.01"/>
            <stop offset="0.95" stop-color="#010101"/>
        </linearGradient>
        <linearGradient id="paint34_linear_108_1327" x1="858.746" y1="413.892" x2="685.86" y2="418.761" gradientUnits="userSpaceOnUse">
            <stop stop-color="#010101" stop-opacity="0.01"/>
            <stop offset="0.95" stop-color="#010101"/>
        </linearGradient>
    </defs>
</svg>
